<svg width="26" height="26" viewBox="0 0 26 26" fill="none" xmlns="http://www.w3.org/2000/svg">
<path d="M12.9431 6.2697C9.30416 6.21706 6.3265 9.11045 6.27385 12.7502C6.2212 16.39 9.11393 19.3683 12.7529 19.4209C16.3918 19.4736 19.3695 16.5802 19.4222 12.9404C19.4748 9.30064 16.5821 6.32233 12.9431 6.2697ZM12.7862 17.1203C10.4346 17.0863 8.53984 15.1413 8.57395 12.7835C8.60805 10.4257 10.5525 8.53621 12.9098 8.5703C15.2672 8.6044 17.1562 10.5493 17.1221 12.9071C17.088 15.265 15.1378 17.1543 12.7862 17.1203ZM21.3235 6.12188C21.3111 6.9746 20.6147 7.64569 19.7679 7.63344C18.9154 7.62111 18.2444 6.92451 18.2567 6.07752C18.2689 5.23053 18.9655 4.55371 19.8123 4.56596C20.6591 4.57821 21.3357 5.27489 21.3235 6.12188ZM25.6551 7.7415C25.5876 5.68556 25.1447 3.85889 23.6616 2.33773C22.1842 0.816641 20.3715 0.321045 18.319 0.188321C16.2037 0.0375182 9.85842 -0.0542648 7.73968 0.0352942C5.68993 0.102955 3.86367 0.545915 2.33719 2.02355C0.810712 3.50118 0.320936 5.31436 0.188229 7.3674C0.0374456 9.48314 -0.0543579 15.8298 0.0351675 17.949C0.102717 20.005 0.545567 21.8317 2.02867 23.3528C3.51177 24.874 5.31873 25.3695 7.37131 25.5022C9.48657 25.653 15.8319 25.7448 17.9506 25.6552C20.0061 25.5877 21.8323 25.1447 23.3532 23.6613C24.8739 22.1836 25.3694 20.3705 25.5021 18.3174C25.6529 16.2017 25.7446 9.86071 25.6551 7.7415ZM22.7343 20.5499C22.2718 21.6651 21.3954 22.5168 20.2617 22.9526C18.5641 23.5977 14.5612 23.3853 12.6959 23.3583C10.8307 23.3313 6.81767 23.4221 5.14511 22.7339C4.03013 22.2713 3.17867 21.3946 2.74296 20.2607C2.09795 18.5627 2.31038 14.5589 2.33737 12.6933C2.36436 10.8276 2.27362 6.8137 2.96167 5.14077C3.42418 4.02554 4.30065 3.17387 5.43435 2.73807C7.13191 2.0929 11.1348 2.30536 13.0001 2.33234C14.8653 2.35932 18.8783 2.26854 20.5509 2.95673C21.6659 3.41933 22.5173 4.29599 22.953 5.42994C23.5981 7.12788 23.3856 11.1317 23.3586 12.9973C23.3316 14.863 23.4281 18.877 22.7343 20.5499Z" fill="white"/>
</svg>
