<svg width="34" height="27" viewBox="0 0 34 27" fill="none" xmlns="http://www.w3.org/2000/svg">
<path d="M30.5052 6.72888C30.5267 7.02418 30.5267 7.31954 30.5267 7.61484C30.5267 16.6218 23.5153 27 10.7005 27C6.75255 27 3.08505 25.882 0 23.9414C0.560936 24.0047 1.10022 24.0258 1.68274 24.0258C4.94031 24.0258 7.9391 22.95 10.3338 21.1149C7.27032 21.0516 4.70304 19.0899 3.81851 16.3898C4.25002 16.4531 4.68146 16.4953 5.13455 16.4953C5.76017 16.4953 6.38585 16.4109 6.9683 16.2633C3.77541 15.6304 1.38066 12.8883 1.38066 9.57655V9.49221C2.30829 9.99846 3.38706 10.3149 4.53039 10.357C2.65347 9.13354 1.42382 7.04528 1.42382 4.68277C1.42382 3.41716 1.76894 2.25701 2.37304 1.2445C5.80327 5.37887 10.9594 8.07883 16.7411 8.37419C16.6332 7.86794 16.5685 7.34065 16.5685 6.81329C16.5685 3.05856 19.6751 0 23.5368 0C25.5431 0 27.3553 0.822654 28.6282 2.15156C30.203 1.85626 31.7132 1.2867 33.0508 0.506254C32.5329 2.08832 31.4327 3.41723 29.9873 4.26092C31.3896 4.11334 32.7488 3.73356 34 3.20627C33.0509 4.55622 31.8643 5.75851 30.5052 6.72888Z" fill="white"/>
</svg>
