<svg width="569" height="95" viewBox="0 0 569 95" fill="none" xmlns="http://www.w3.org/2000/svg">
<path d="M423.579 74.823C410.259 62.056 408.862 40.4927 422.089 26.693C433.478 14.8099 454.035 10.243 469.732 24.3678C472.028 26.3845 473.952 28.5968 475.306 30.4458L441.23 65.9991C447.123 69.4416 454.04 67.9805 459.367 62.4223C463.684 57.9182 464.263 54.2445 464.487 51.5172L478.819 36.7552C483.866 48.9467 481.641 63.5457 471.905 73.7038C458.679 87.5034 437.187 87.8655 423.579 74.823ZM431.263 56.4468L452.94 33.8307C446.599 31.4304 439.219 33.1829 434.627 37.9745C429.299 43.5327 428.596 50.2133 431.263 56.4468Z" fill="#FEFEFE"/>
<path d="M168.249 83.4546C149.267 83.4546 134.002 68.1896 134.002 49.2078C134.002 30.226 149.267 14.9609 168.249 14.9609C184.045 14.9609 197.186 25.4474 201.168 39.7833H182.85C179.93 35.0046 174.753 31.8189 168.382 31.8189C158.559 31.8189 151.258 39.385 151.258 49.2078C151.258 59.0305 158.559 66.5967 168.382 66.5967C174.488 66.5967 179.266 63.6764 182.319 59.296H201.036C196.788 73.3664 183.779 83.4546 168.249 83.4546Z" fill="#FEFEFE"/>
<path d="M242.007 83.4546C223.158 83.4546 207.761 68.1896 207.761 49.2078C207.761 30.226 223.158 14.9609 242.007 14.9609C260.857 14.9609 276.122 30.226 276.122 49.2078V82.3927H258.865V75.3575C256.874 79.7379 249.574 83.4546 242.007 83.4546ZM242.14 66.5967C251.963 66.5967 258.998 59.0305 258.998 49.2078C258.998 39.385 251.963 31.8189 242.14 31.8189C232.317 31.8189 225.017 39.385 225.017 49.2078C225.017 59.0305 232.317 66.5967 242.14 66.5967Z" fill="#FEFEFE"/>
<path d="M300.684 82.3927L276.127 16.0229H294.179L309.312 59.6942L324.577 16.0229H342.629L317.94 82.3927H300.684Z" fill="#FEFEFE"/>
<path d="M403.718 82.3927H386.462V47.4822C386.462 36.863 383.01 31.8189 374.515 31.8189C366.02 31.8189 362.568 36.863 362.568 47.4822V82.3927H345.312V47.4822C345.312 25.1819 357.524 14.9609 374.515 14.9609C391.506 14.9609 403.718 25.1819 403.718 47.4822V82.3927Z" fill="#FEFEFE"/>
<path d="M527.933 82.3308H547.446L523.951 47.8185L514.128 33.6153L502.182 15.9609H482.802L504.438 47.8185L480.811 82.3308H500.456L514.261 62.1544L527.933 82.3308Z" fill="#FEFEFE"/>
<path d="M545.528 16.2109H526.148L516.643 29.9609L526.643 44.0172L545.528 16.2109Z" fill="url(#paint0_linear_767_30)"/>
<path d="M561.095 18.5298H559.417V21.4172H558.518V14.7578H560.927C561.659 14.7578 562.217 14.9188 562.6 15.2407C562.983 15.5627 563.174 16.0338 563.174 16.6539C563.174 17.3453 562.825 17.8435 562.127 18.1485C562.815 18.3722 563.159 18.8958 563.159 19.7193V20.3446C563.159 20.7987 563.26 21.1189 563.464 21.3053V21.4172H562.534C562.347 21.2511 562.254 20.8919 562.254 20.3395V19.7295C562.254 19.3668 562.149 19.0771 561.939 18.8602C561.729 18.6399 561.447 18.5298 561.095 18.5298ZM559.417 15.4644V17.8231H560.836C561.344 17.8231 561.71 17.7283 561.934 17.5385C562.161 17.3453 562.274 17.0471 562.274 16.6438C562.274 15.8575 561.825 15.4644 560.927 15.4644H559.417Z" fill="#FEFEFE"/>
<circle cx="560.949" cy="18.3202" r="6.82021" stroke="#FEFEFE"/>
<path d="M57.5285 0C53.6054 0 50.8084 4.00383 49.9003 6.00575C48.2658 8.73563 44.1248 15.7241 40.6377 21.8391C36.2787 29.4828 30.83 30.5747 25.3812 25.1149C21.0223 20.7471 18.1163 24.023 17.2082 26.2069L2.49675 51.3218C-1.42633 57.8736 0.135637 62.4234 1.407 63.8793L29.1955 92.2701C31.8109 94.454 34.6442 95 35.7339 95H64.0673C66.6827 95 68.4263 92.4521 68.9711 91.1782L88.0416 58.9655C91.9647 53.2874 88.2233 51.8678 85.8622 51.8678H59.7083C55.8942 51.8678 55.3493 55.1437 53.7147 57.8736C52.407 60.0575 50.6271 60.6034 49.9006 60.6034H30.2849C22.4388 60.6034 23.02 54.4157 24.2913 51.3218L28.1054 43.1322C30.7208 37.8908 35.3704 36.2165 37.3683 36.0345H95.6696C99.5926 36.0345 102.187 33.4866 102.994 32.2126L117.464 7.0977C120.08 2.72989 116.738 0.545977 114.74 0H57.5285Z" fill="url(#paint1_linear_767_30)"/>
<defs>
<linearGradient id="paint0_linear_767_30" x1="549.143" y1="0.687499" x2="520.643" y2="33.1875" gradientUnits="userSpaceOnUse">
<stop stop-color="#3D46D9"/>
<stop offset="1" stop-color="#D05CB2"/>
</linearGradient>
<linearGradient id="paint1_linear_767_30" x1="11.5" y1="2.5" x2="59.2123" y2="95" gradientUnits="userSpaceOnUse">
<stop stop-color="#D35CB1"/>
<stop offset="1" stop-color="#3C45DA"/>
</linearGradient>
</defs>
</svg>
