<svg width="119" height="95" viewBox="0 0 119 95" fill="none" xmlns="http://www.w3.org/2000/svg">
<path d="M57.5285 0C53.6054 0 50.8084 4.00383 49.9003 6.00575C48.2658 8.73563 44.1248 15.7241 40.6377 21.8391C36.2787 29.4828 30.83 30.5747 25.3812 25.1149C21.0223 20.7471 18.1163 24.023 17.2082 26.2069L2.49675 51.3218C-1.42633 57.8736 0.135637 62.4234 1.407 63.8793L29.1955 92.2701C31.8109 94.454 34.6442 95 35.7339 95H64.0673C66.6827 95 68.4263 92.4521 68.9711 91.1782L88.0416 58.9655C91.9647 53.2874 88.2233 51.8678 85.8622 51.8678H59.7083C55.8942 51.8678 55.3493 55.1437 53.7147 57.8736C52.407 60.0575 50.6271 60.6034 49.9006 60.6034H30.2849C22.4388 60.6034 23.02 54.4157 24.2913 51.3218L28.1054 43.1322C30.7208 37.8908 35.3704 36.2165 37.3683 36.0345H95.6696C99.5926 36.0345 102.187 33.4866 102.994 32.2126L117.464 7.0977C120.08 2.72989 116.738 0.545977 114.74 0H57.5285Z" fill="url(#paint0_linear_767_3)"/>
<defs>
<linearGradient id="paint0_linear_767_3" x1="11.5" y1="2.5" x2="59.2123" y2="95" gradientUnits="userSpaceOnUse">
<stop stop-color="#D35CB1"/>
<stop offset="1" stop-color="#3C45DA"/>
</linearGradient>
</defs>
</svg>
