<svg width="435" height="74" viewBox="0 0 435 74" fill="none" xmlns="http://www.w3.org/2000/svg">
<path d="M289.577 63.823C276.257 51.056 274.861 29.4927 288.087 15.693C299.476 3.80994 320.033 -0.757045 335.73 13.3678C338.026 15.3845 339.95 17.5968 341.304 19.4458L307.228 54.9991C313.122 58.4416 320.038 56.9805 325.365 51.4223C329.682 46.9182 330.261 43.2445 330.485 40.5172L344.817 25.7552C349.864 37.9467 347.639 52.5457 337.903 62.7038C324.677 76.5034 303.185 76.8655 289.577 63.823ZM297.261 45.4468L318.938 22.8307C312.597 20.4304 305.217 22.1829 300.625 26.9745C295.297 32.5327 294.594 39.2133 297.261 45.4468Z" fill="#FEFEFE"/>
<path d="M34.2468 72.4546C15.2651 72.4546 0 57.1896 0 38.2078C0 19.226 15.2651 3.96094 34.2468 3.96094C50.0429 3.96094 63.1841 14.4474 67.1663 28.7833H48.8482C45.9279 24.0046 40.7511 20.8189 34.3796 20.8189C24.5568 20.8189 17.2562 28.385 17.2562 38.2078C17.2562 48.0305 24.5568 55.5967 34.3796 55.5967C40.4856 55.5967 45.2642 52.6764 48.3173 48.296H67.0336C62.7859 62.3664 49.7774 72.4546 34.2468 72.4546Z" fill="#FEFEFE"/>
<path d="M108.006 72.4546C89.1565 72.4546 73.7587 57.1896 73.7587 38.2078C73.7587 19.226 89.1565 3.96094 108.006 3.96094C126.855 3.96094 142.12 19.226 142.12 38.2078V71.3927H124.863V64.3575C122.872 68.7379 115.572 72.4546 108.006 72.4546ZM108.138 55.5967C117.961 55.5967 124.996 48.0305 124.996 38.2078C124.996 28.385 117.961 20.8189 108.138 20.8189C98.3155 20.8189 91.0149 28.385 91.0149 38.2078C91.0149 48.0305 98.3155 55.5967 108.138 55.5967Z" fill="#FEFEFE"/>
<path d="M166.682 71.3927L142.125 5.02286H160.177L175.31 48.6942L190.575 5.02286H208.627L183.938 71.3927H166.682Z" fill="#FEFEFE"/>
<path d="M269.716 71.3927H252.46V36.4822C252.46 25.863 249.008 20.8189 240.513 20.8189C232.018 20.8189 228.566 25.863 228.566 36.4822V71.3927H211.31V36.4822C211.31 14.1819 223.522 3.96094 240.513 3.96094C257.504 3.96094 269.716 14.1819 269.716 36.4822V71.3927Z" fill="#FEFEFE"/>
<path d="M393.931 71.3308H413.444L389.949 36.8185L380.126 22.6153L368.18 4.96094H348.8L370.436 36.8185L346.809 71.3308H366.454L380.259 51.1544L393.931 71.3308Z" fill="#FEFEFE"/>
<path d="M411.526 5.21094H392.146L382.641 18.9609L392.641 33.0172L411.526 5.21094Z" fill="url(#paint0_linear_767_18)"/>
<path d="M427.093 7.52975H425.415V10.4172H424.516V3.75781H426.925C427.657 3.75781 428.215 3.91879 428.598 4.24074C428.981 4.5627 429.172 5.03377 429.172 5.65395C429.172 6.3453 428.823 6.84348 428.125 7.14849C428.813 7.37216 429.157 7.89576 429.157 8.71929V9.34455C429.157 9.79868 429.259 10.1189 429.462 10.3053V10.4172H428.532C428.345 10.2511 428.252 9.89187 428.252 9.33947V8.72945C428.252 8.36683 428.147 8.07707 427.937 7.86018C427.727 7.63989 427.445 7.52975 427.093 7.52975ZM425.415 4.46442V6.82315H426.834C427.342 6.82315 427.708 6.72826 427.932 6.53847C428.159 6.3453 428.272 6.04707 428.272 5.64378C428.272 4.85754 427.823 4.46442 426.925 4.46442H425.415Z" fill="#FEFEFE"/>
<circle cx="426.947" cy="7.32021" r="6.82021" stroke="#FEFEFE"/>
<defs>
<linearGradient id="paint0_linear_767_18" x1="415.141" y1="-10.3125" x2="386.641" y2="22.1875" gradientUnits="userSpaceOnUse">
<stop stop-color="#3D46D9"/>
<stop offset="1" stop-color="#D05CB2"/>
</linearGradient>
</defs>
</svg>
