<svg width="69" height="69" viewBox="0 0 69 69" fill="none" xmlns="http://www.w3.org/2000/svg">
<path d="M10.7297 59.2136C-2.5908 46.4466 -3.98713 24.8833 9.23913 11.0836C20.6284 -0.79944 41.1856 -5.36642 56.882 8.75843C59.178 10.7751 61.1026 12.9875 62.4561 14.8364L28.3801 50.3897C34.2739 53.8322 41.1902 52.3711 46.5174 46.8129C50.8343 42.3088 51.4135 38.6351 51.6373 35.9078L65.9698 21.1458C71.0164 33.3373 68.7913 47.9363 59.0553 58.0944C45.8291 71.8941 24.3377 72.2562 10.7297 59.2136ZM18.4137 40.8374L40.0901 18.2213C33.749 15.821 26.3695 17.5736 21.7771 22.3651C16.4498 27.9233 15.7466 34.6039 18.4137 40.8374Z" fill="#FEFEFE"/>
</svg>
