<svg width="15" height="15" viewBox="0 0 15 15" fill="none" xmlns="http://www.w3.org/2000/svg">
<path d="M7.46599 7.52975H5.78845V10.4172H4.88867V3.75781H7.29824C8.03026 3.75781 8.58775 3.91879 8.9707 4.24074C9.35366 4.5627 9.54514 5.03377 9.54514 5.65395C9.54514 6.3453 9.19607 6.84348 8.49794 7.14849C9.1859 7.37216 9.52989 7.89576 9.52989 8.71929V9.34455C9.52989 9.79868 9.63156 10.1189 9.83489 10.3053V10.4172H8.90462C8.71822 10.2511 8.62503 9.89187 8.62503 9.33947V8.72945C8.62503 8.36683 8.51997 8.07707 8.30985 7.86018C8.09973 7.63989 7.81845 7.52975 7.46599 7.52975ZM5.78845 4.46442V6.82315H7.20674C7.71508 6.82315 8.08109 6.72826 8.30477 6.53847C8.53183 6.3453 8.64536 6.04707 8.64536 5.64378C8.64536 4.85754 8.19632 4.46442 7.29824 4.46442H5.78845Z" fill="#FEFEFE"/>
<circle cx="7.32021" cy="7.32021" r="6.82021" stroke="#FEFEFE"/>
</svg>
